<svg xmlns="http://www.w3.org/2000/svg" viewBox="0 0 1200 360" role="img" aria-labelledby="title desc">
  <title id="title">cat-emacs banner</title>
  <desc id="desc">A wide SVG banner for cat-emacs with a cat outline, lambda symbol, whiskers, and wordmark.</desc>
  <rect width="1200" height="360" rx="36" fill="#0F111A"/>
  <path d="M 0 252 C 190 194 335 246 503 198 C 674 149 826 87 1200 135 V 360 H 0 Z" fill="#171A28"/>
  <path d="M 0 278 C 220 223 370 274 555 224 C 741 174 893 136 1200 184 V 360 H 0 Z" fill="#211B3D"/>

  <g transform="translate(74 48) scale(2)" fill="none" stroke="#F8FAFC" stroke-width="7" stroke-linecap="round" stroke-linejoin="round">
    <path d="M 16 71 C 16.5 64 18 59 21 54 L 23 50 C 24 48 24.5 45 25 41 L 28 21 L 47 41 C 53 39 58.5 38.5 64 38.5 C 69.5 38.5 75 39 81 41 L 100 21 L 103 41 C 103.5 45 104 48 105 50 L 107 54 C 110 59 111.5 64 112 71"/>
    <path d="M 10 78 L 34 83"/>
    <path d="M 10 93 L 34 90"/>
    <path d="M 94 83 L 118 78"/>
    <path d="M 94 90 L 118 93"/>
    <path d="M 56 69 H 62 C 64 69 65.5 70.5 66.4 73 L 75 96 C 76.3 99.5 79 101 83 101 H 88"/>
    <path d="M 66.5 77 L 52 101"/>
  </g>

  <g transform="translate(390 79)">
    <text x="0" y="84" font-family="Inter, ui-sans-serif, system-ui, -apple-system, BlinkMacSystemFont, 'Segoe UI', sans-serif" font-size="86" font-weight="800" letter-spacing="0" fill="#F8FAFC">cat-emacs</text>
    <text x="4" y="145" font-family="Inter, ui-sans-serif, system-ui, -apple-system, BlinkMacSystemFont, 'Segoe UI', sans-serif" font-size="28" font-weight="500" letter-spacing="0" fill="#C8C7E8">a tiny feline layer for a sharper Emacs</text>
    <path d="M 8 187 H 184" stroke="#A99DFF" stroke-width="8" stroke-linecap="round"/>
    <path d="M 210 187 H 270" stroke="#F8FAFC" stroke-width="8" stroke-linecap="round" opacity=".75"/>
    <path d="M 296 187 H 356" stroke="#F6C96D" stroke-width="8" stroke-linecap="round"/>
  </g>

  <g fill="none" stroke-linecap="round" stroke-linejoin="round" opacity=".32">
    <path d="M 1001 82 H 1037 C 1054 82 1062 91 1068 108 L 1105 213 C 1114 238 1132 250 1160 250" stroke="#A99DFF" stroke-width="12"/>
    <path d="M 1070 128 L 1011 248" stroke="#F8FAFC" stroke-width="12"/>
    <path d="M 958 154 L 1019 166" stroke="#F6C96D" stroke-width="9"/>
    <path d="M 953 199 L 1018 194" stroke="#F6C96D" stroke-width="9"/>
    <path d="M 1120 166 L 1181 154" stroke="#F6C96D" stroke-width="9"/>
    <path d="M 1121 194 L 1186 199" stroke="#F6C96D" stroke-width="9"/>
  </g>
</svg>
